<?xml version="1.0" encoding="utf-8"?>
<!-- Generator: Adobe Illustrator 16.0.0, SVG Export Plug-In . SVG Version: 6.00 Build 0)  -->
<!DOCTYPE svg PUBLIC "-//W3C//DTD SVG 1.1//EN" "http://www.w3.org/Graphics/SVG/1.1/DTD/svg11.dtd">
<svg version="1.1" id="Layer_1" xmlns="http://www.w3.org/2000/svg" xmlns:xlink="http://www.w3.org/1999/xlink" x="0px" y="0px"
	 width="117.736px" height="117.96px" viewBox="0 0 117.736 117.96" enable-background="new 0 0 117.736 117.96"
	 xml:space="preserve">
<g>
	<path fill="#8FA1A3" d="M112.892,0H58.756v117.96h54.137c2.676,0,4.844-2.17,4.844-4.844V4.844C117.736,2.168,115.568,0,112.892,0z
		"/>
	<path fill="#A8C0C0" d="M4.844,0H58.98v117.96H4.844c-2.675,0-4.845-2.17-4.845-4.844V4.844C0,2.168,2.17,0,4.844,0z"/>
</g>
<g>
	<g>
		<path fill="#333333" d="M31.438,71.356l-4.462,12.729c-0.073,0.438-0.292,0.584-0.731,0.584h-7.461
			c-0.512,0-0.658-0.219-0.512-0.73c3.949-11.191,10.604-29.846,15.287-42.501c0.221-0.731,0.438-1.463,0.586-4.023
			c0-0.292,0.219-0.439,0.438-0.439h10.095c0.365,0,0.438,0.073,0.586,0.366c5.412,14.996,11.338,31.527,16.897,46.67
			c0.146,0.438,0,0.657-0.438,0.657H53.53c-0.365,0-0.512-0.146-0.658-0.438L48.19,71.358H31.438V71.356z M46.215,64.187
			c-1.463-4.9-5.048-14.776-6.511-19.896h-0.073c-1.098,4.828-4.097,13.094-6.291,19.896H46.215z"/>
		<path fill="#333333" d="M75.546,68.649c0.146,5.56,3.584,9.511,10.974,9.511c2.707,0,5.998-0.439,9.145-1.83
			c0.219-0.072,0.438,0,0.438,0.366v5.853c0,0.512-0.146,0.658-0.438,0.805c-2.854,1.463-6.291,1.975-10.973,2.049
			c-13.314,0-18.144-9.07-18.144-18.288c0-10.46,6.22-18.727,17.191-18.727c10.754,0,15.068,8.193,15.068,14.995
			c0,3.146-0.365,4.609-0.658,4.828c-0.877,0.365-3.656,0.438-7.68,0.438H75.546z M87.251,63.017c2.705,0,3.146-0.293,3.22-0.585
			c0-0.146,0-0.513,0-0.806c0-2.193-1.464-6.948-7.097-6.948c-4.756,0-7.242,3.658-7.828,8.339H87.251z"/>
	</g>
</g>
</svg>
