<?xml version="1.0" encoding="utf-8"?>
<!-- Generator: Adobe Illustrator 16.0.0, SVG Export Plug-In . SVG Version: 6.00 Build 0)  -->
<!DOCTYPE svg PUBLIC "-//W3C//DTD SVG 1.1//EN" "http://www.w3.org/Graphics/SVG/1.1/DTD/svg11.dtd">
<svg version="1.1" id="Layer_1" xmlns="http://www.w3.org/2000/svg" xmlns:xlink="http://www.w3.org/1999/xlink" x="0px" y="0px"
	 width="117.736px" height="117.959px" viewBox="0 0 117.736 117.959" enable-background="new 0 0 117.736 117.959"
	 xml:space="preserve">
<g>
	<path fill="#EE9308" d="M112.892,0H58.756v117.959h54.136c2.675,0,4.844-2.169,4.844-4.844V4.844
		C117.736,2.168,115.567,0,112.892,0z"/>
	<path fill="#F2A313" d="M4.844,0H58.98v117.959H4.844c-2.675,0-4.844-2.169-4.844-4.844V4.844C0,2.168,2.169,0,4.844,0z"/>
</g>
<g>
	<g>
		<path fill="#88888A" d="M40.509,71.356l-4.462,12.729c-0.073,0.438-0.292,0.585-0.731,0.585h-7.461
			c-0.512,0-0.658-0.219-0.512-0.731c3.95-11.192,10.606-29.846,15.288-42.5c0.22-0.731,0.439-1.463,0.585-4.023
			c0-0.292,0.219-0.439,0.439-0.439h10.095c0.366,0,0.439,0.073,0.585,0.366c5.414,14.996,11.338,31.528,16.898,46.67
			c0.146,0.439,0,0.658-0.439,0.658H62.6c-0.366,0-0.512-0.146-0.658-0.439L57.26,71.356H40.509z M55.285,64.187
			c-1.463-4.901-5.047-14.776-6.51-19.896h-0.073c-1.097,4.828-4.097,13.094-6.291,19.896H55.285z"/>
		<path fill="#88888A" d="M78.325,39.755c0-2.707,2.121-4.535,4.974-4.535c3,0,4.828,1.829,4.828,4.535
			c0,2.78-1.975,4.536-4.9,4.536S78.325,42.535,78.325,39.755z M78.837,49.704c0-0.439,0.146-0.585,0.512-0.585h7.754
			c0.438,0,0.585,0.073,0.585,0.585v34.381c0,0.366-0.146,0.585-0.585,0.585h-7.607c-0.439,0-0.658-0.146-0.658-0.658V49.704z"/>
	</g>
</g>
</svg>
