<?xml version="1.0" encoding="utf-8"?>
<!-- Generator: Adobe Illustrator 16.0.0, SVG Export Plug-In . SVG Version: 6.00 Build 0)  -->
<!DOCTYPE svg PUBLIC "-//W3C//DTD SVG 1.1//EN" "http://www.w3.org/Graphics/SVG/1.1/DTD/svg11.dtd">
<svg version="1.1" id="Layer_1" xmlns="http://www.w3.org/2000/svg" xmlns:xlink="http://www.w3.org/1999/xlink" x="0px" y="0px"
	 width="117.736px" height="117.96px" viewBox="0 0 117.736 117.96" enable-background="new 0 0 117.736 117.96"
	 xml:space="preserve">
<g>
	<path fill="#EE9308" d="M112.892,1H58.756v117.958h54.137c2.675,0,4.844-2.168,4.844-4.844V5.844
		C117.736,3.168,115.567,1,112.892,1z"/>
	<path fill="#F2A313" d="M4.844,1H58.98v117.958H4.844c-2.676,0-4.845-2.168-4.845-4.844V5.844C0,3.168,2.169,1,4.844,1z"/>
</g>
<g>
	<g>
		<path fill="#333333" d="M40.509,72.357l-4.462,12.729c-0.072,0.438-0.292,0.584-0.73,0.584h-7.461
			c-0.513,0-0.658-0.219-0.513-0.73c3.95-11.191,10.606-29.846,15.288-42.5c0.221-0.731,0.439-1.463,0.585-4.023
			c0-0.292,0.22-0.439,0.439-0.439H53.75c0.366,0,0.439,0.073,0.585,0.366c5.414,14.996,11.338,31.527,16.898,46.67
			c0.146,0.439,0,0.658-0.439,0.658H62.6c-0.366,0-0.513-0.146-0.658-0.439L57.26,72.357H40.509z M55.285,65.187
			c-1.463-4.9-5.047-14.776-6.51-19.896h-0.073c-1.097,4.828-4.097,13.094-6.291,19.896H55.285z"/>
		<path fill="#333333" d="M78.325,40.755c0-2.707,2.121-4.535,4.974-4.535c3,0,4.828,1.829,4.828,4.535
			c0,2.78-1.975,4.536-4.899,4.536C80.302,45.291,78.325,43.535,78.325,40.755z M78.837,50.704c0-0.439,0.146-0.585,0.513-0.585
			h7.754c0.438,0,0.585,0.073,0.585,0.585v34.381c0,0.365-0.146,0.584-0.585,0.584h-7.607c-0.438,0-0.658-0.145-0.658-0.656
			L78.837,50.704L78.837,50.704z"/>
	</g>
</g>
</svg>
