<?xml version="1.0" encoding="utf-8"?>
<!-- Generator: Adobe Illustrator 16.0.0, SVG Export Plug-In . SVG Version: 6.00 Build 0)  -->
<!DOCTYPE svg PUBLIC "-//W3C//DTD SVG 1.1//EN" "http://www.w3.org/Graphics/SVG/1.1/DTD/svg11.dtd">
<svg version="1.1" id="Layer_1" xmlns="http://www.w3.org/2000/svg" xmlns:xlink="http://www.w3.org/1999/xlink" x="0px" y="0px"
	 width="117.736px" height="117.959px" viewBox="0 0 117.736 117.959" enable-background="new 0 0 117.736 117.959"
	 xml:space="preserve">
<g>
	<path fill="#36B097" d="M112.892,0H58.756v117.96h54.137c2.676,0,4.844-2.169,4.844-4.844V4.843C117.736,2.168,115.568,0,112.892,0
		z"/>
	<path fill="#5CB1A0" d="M4.844,0H58.98v117.96H4.844C2.17,117.96,0,115.791,0,113.116V4.843C0,2.168,2.17,0,4.844,0z"/>
</g>
<g>
	<g>
		<path fill="#333333" d="M30.523,71.356L26.06,84.085c-0.072,0.438-0.292,0.584-0.73,0.584h-7.462c-0.512,0-0.658-0.219-0.512-0.73
			c3.95-11.191,10.605-29.845,15.288-42.5c0.22-0.731,0.438-1.463,0.586-4.023c0-0.292,0.219-0.439,0.438-0.439h10.096
			c0.364,0,0.438,0.073,0.585,0.366c5.413,14.996,11.339,31.527,16.896,46.671c0.146,0.438,0,0.657-0.438,0.657h-8.192
			c-0.366,0-0.512-0.146-0.658-0.438l-4.682-12.873H30.523V71.356z M45.3,64.187c-1.463-4.9-5.048-14.776-6.511-19.896h-0.072
			c-1.098,4.828-4.098,13.094-6.291,19.896H45.3z"/>
		<path fill="#333333" d="M97.675,76.623c0,3.804,0.22,5.998,0.365,7.534c0.072,0.365-0.074,0.512-0.512,0.512h-6.805
			c-0.438,0-0.584-0.072-0.73-0.438c-0.219-0.731-0.293-1.901-0.365-2.635c-3.364,2.78-6.877,3.805-10.68,3.805
			c-6.219,0-12.07-3.071-12.07-13.459V49.703c0-0.512,0.146-0.585,0.584-0.585h7.683c0.438,0,0.512,0.146,0.512,0.512v20.994
			c0,4.682,1.684,7.607,6.145,7.607c2.707,0,5.121-1.023,7.023-2.926V49.703c0-0.439,0.146-0.585,0.584-0.585h7.682
			c0.513,0,0.586,0.146,0.586,0.512L97.675,76.623L97.675,76.623z"/>
	</g>
</g>
</svg>
