<?xml version="1.0" encoding="utf-8"?>
<!-- Generator: Adobe Illustrator 16.0.0, SVG Export Plug-In . SVG Version: 6.00 Build 0)  -->
<!DOCTYPE svg PUBLIC "-//W3C//DTD SVG 1.1//EN" "http://www.w3.org/Graphics/SVG/1.1/DTD/svg11.dtd">
<svg version="1.1" id="Layer_1" xmlns="http://www.w3.org/2000/svg" xmlns:xlink="http://www.w3.org/1999/xlink" x="0px" y="0px"
	 width="117.736px" height="117.96px" viewBox="0 0 117.736 117.96" enable-background="new 0 0 117.736 117.96"
	 xml:space="preserve">
<g>
	<g>
		<path fill="#644081" d="M112.781,0H58.645v117.96h54.136c2.676,0,4.844-2.169,4.844-4.844V4.844
			C117.625,2.169,115.457,0,112.781,0z"/>
		<path fill="#513A77" d="M4.732,0h54.137v117.96H4.732c-2.674,0-4.844-2.169-4.844-4.844V4.844C-0.111,2.169,2.059,0,4.732,0z"/>
	</g>
	<g>
		<path fill="#FFFFFF" d="M35.205,28.109H65.21c11.068,0,18.332,5.016,18.332,15.305c0,6.227-3.199,10.723-8.82,13.145v0.174
			c7.523,1.643,11.588,7.521,11.588,15.91c0,9.684-6.744,17.207-22.742,17.207H35.205V28.109z M46.015,53.965h17.639
			c5.189,0,9.08-3.027,9.08-8.561c0-6.227-3.199-8.475-9.08-8.475H46.015V53.965z M46.015,81.029h19.11
			c6.572,0,10.377-3.545,10.377-9.771c0-6.053-3.805-9.512-10.377-9.512h-19.11V81.029z"/>
	</g>
</g>
</svg>
