<?xml version="1.0" encoding="utf-8"?>
<!-- Generator: Adobe Illustrator 16.0.0, SVG Export Plug-In . SVG Version: 6.00 Build 0)  -->
<!DOCTYPE svg PUBLIC "-//W3C//DTD SVG 1.1//EN" "http://www.w3.org/Graphics/SVG/1.1/DTD/svg11.dtd">
<svg version="1.1" id="Layer_1" xmlns="http://www.w3.org/2000/svg" xmlns:xlink="http://www.w3.org/1999/xlink" x="0px" y="0px"
	 width="117.736px" height="117.96px" viewBox="0 0 117.736 117.96" enable-background="new 0 0 117.736 117.96"
	 xml:space="preserve">
<g>
	<g>
		<path fill="#26A8DC" d="M112.781-0.313H58.645v117.959h54.136c2.676,0,4.844-2.168,4.844-4.844V4.531
			C117.625,1.855,115.457-0.313,112.781-0.313z"/>
		<path fill="#1572B3" d="M4.733-0.313h54.136v117.959H4.733c-2.675,0-4.844-2.168-4.844-4.844V4.531
			C-0.111,1.855,2.058-0.313,4.733-0.313z"/>
	</g>
	<polygon fill="#FFFFFF" points="27.333,35.909 26,22.743 91.5,22.743 85.333,89.576 58.667,96.744 31.833,89.076 30.167,69.076 
		43,69.076 44.333,79.41 58.583,83.076 73.167,79.41 74.667,62.576 44.167,62.576 43.167,49.243 75.833,49.243 76.833,35.909 	"/>
	<g>
		<polygon fill="#EBEBED" points="44.167,62.576 58.869,62.576 58.869,49.243 43.167,49.243 		"/>
		<polygon fill="#EBEBED" points="58.869,83.003 58.583,83.076 44.333,79.41 43,69.076 30.167,69.076 31.833,89.076 58.667,96.744 
			58.869,96.688 		"/>
		<polygon fill="#EBEBED" points="58.869,22.743 26,22.743 27.333,35.909 58.869,35.909 		"/>
	</g>
</g>
</svg>
