<?xml version="1.0" encoding="utf-8"?>
<!-- Generator: Adobe Illustrator 16.0.0, SVG Export Plug-In . SVG Version: 6.00 Build 0)  -->
<!DOCTYPE svg PUBLIC "-//W3C//DTD SVG 1.1//EN" "http://www.w3.org/Graphics/SVG/1.1/DTD/svg11.dtd">
<svg version="1.1" id="Layer_1" xmlns="http://www.w3.org/2000/svg" xmlns:xlink="http://www.w3.org/1999/xlink" x="0px" y="0px"
	 width="117.736px" height="117.96px" viewBox="0 0 117.736 117.96" enable-background="new 0 0 117.736 117.96"
	 xml:space="preserve">
<g>
	<path fill="#EF6060" d="M112.781-0.313H58.645v117.959h54.136c2.676,0,4.844-2.168,4.844-4.844V4.531
		C117.625,1.855,115.457-0.313,112.781-0.313z"/>
	<path fill="#D34A47" d="M4.733-0.313h54.136v117.959H4.733c-2.675,0-4.844-2.168-4.844-4.844V4.531
		C-0.111,1.855,2.058-0.313,4.733-0.313z"/>
</g>
<g>
	<path fill="#FFFFFF" d="M71.605,108.786l1.017-16.947l2.809-4.793c0,0-6.392,2.614-17.092,2.614s-16.995-2.567-16.995-2.567
		l3.147,5.23l1.114,16.463c0,1.764,5.82,3.194,13,3.194C65.785,111.98,71.605,110.549,71.605,108.786 M68.397,29.648l2.135-8.438
		L82.353,8.771l-3.115-2.654l-12.517,13.25l-2.479,10.081c-1.865-0.063-3.731-0.093-5.598-0.093
		c-13.181,0-23.866,1.502-23.866,3.354s10.685,3.355,23.866,3.355S82.51,34.563,82.51,32.71
		C82.51,31.346,76.716,30.172,68.397,29.648"/>
	<path fill="#EA5959" d="M67.155,34.373c0,0-0.463,0.104-1.821,0.109c-1.361,0.006-2.327-0.009-2.711-0.359
		c-0.104-0.094-0.161-0.281-0.16-0.407c0.001-0.241,0.172-0.383,0.39-0.471l0.206,0.323c-0.089,0.031-0.141,0.067-0.141,0.106
		c0,0.184,1.391,0.309,2.455,0.294c1.065-0.013,2.351-0.1,2.352-0.281c0-0.054-0.097-0.105-0.266-0.146l0.205-0.321
		c0.276,0.085,0.517,0.251,0.516,0.537C68.177,34.245,67.557,34.318,67.155,34.373"/>
	<path fill="#FFFFFF" d="M82.33,8.796c0.297-0.343-0.154-1.221-1.008-1.961s-1.787-1.061-2.084-0.717
		c-0.298,0.343,0.152,1.222,1.007,1.961C81.098,8.818,82.033,9.139,82.33,8.796 M71.036,67.392
		c-0.279-2.696,5.896-6.601,4.312-6.725c-3.412,0.194-5.11,4-6.827,7.983c-0.629,1.459-2.781,7.685-4.193,6.919
		c-1.411-0.767,1.83-5.887,2.738-8.928c-1.049,0.771-4.894,3.756-5.883,0.959c-1.594,1.354-4.998,2.087-4.614-1.468
		c-0.847,1.501-2.748,3.598-5.032,2.727c-2.998-1.144,1.737-10.694,2.915-10.211c1.177,0.481-0.238,2.657-0.609,3.501
		c-0.815,1.858-1.756,4.196-1.127,4.675c1.078,0.819,4.01-3.102,4.075-3.187c0.549-0.725,2.112-5.466,3.371-4.922
		c1.26,0.543-3.142,6.804-1.496,8.046c0.332,0.251,1.689-0.155,2.517-1.048c0.534-0.579,0.35-1.858,2.132-6.107
		c1.781-4.249,3.369-9.54,4.591-9.136c1.223,0.403,0.215,3.118-0.224,4.131c-2.057,4.751-5.613,12.602-3.936,12.005
		c1.677-0.594,2.55-0.627,4.193-2.551c1.642-1.921,1.565-5.087,2.661-5.021c1.095,0.068,0.912,1.083,0.646,1.856
		c1.078-1.232,5.107-3.83,6.081-1.257c1.152,3.043-5.766,7.442-4.041,7.219c1.682-0.219,4.406-1.945,5.569-3.513l3.203-28.791
		c0,0-3.223,2.667-23.723,2.667c-20.501,0-23.389-2.611-23.389-2.611l2.727,26.277c1.446-4.112,4.883-12.431,10.3-12.152
		c2.463,0.127,5.753,4.872,2.935,5.032c-1.191,0.068-1.313-2.368-2.726-2.726c-1.019-0.258-2.438,0.57-3.355,1.468
		c-1.828,1.79-5.761,8.851-5.242,12.372c0.663,4.488,6.193-1.562,7.129-3.356c0.659-1.265,1.104-5.012,2.546-4.618
		c1.441,0.394-0.126,4.26-1.171,7.681c-1.174,3.838-1.791,7.888-3.263,7.422c-1.471-0.466,0.925-5.422,0.838-6.29
		c-1.383,1.275-3.93,4.505-7.19,2.907l1.693,16.318c0,0,4.5,3.557,18.055,3.557c13.556,0,18.223-3.501,18.223-3.501l2.103-18.9
		C76.829,67.771,71.385,70.744,71.036,67.392"/>
</g>
</svg>
