<?xml version="1.0" encoding="utf-8"?>
<!-- Generator: Adobe Illustrator 16.0.0, SVG Export Plug-In . SVG Version: 6.00 Build 0)  -->
<!DOCTYPE svg PUBLIC "-//W3C//DTD SVG 1.1//EN" "http://www.w3.org/Graphics/SVG/1.1/DTD/svg11.dtd">
<svg version="1.1" id="Layer_1" xmlns="http://www.w3.org/2000/svg" xmlns:xlink="http://www.w3.org/1999/xlink" x="0px" y="0px"
	 width="117.736px" height="117.96px" viewBox="0 0 117.736 117.96" enable-background="new 0 0 117.736 117.96"
	 xml:space="preserve">
<g>
	<g>
		<path fill="#E96832" d="M112.892,0H58.758v117.959h54.135c2.676,0,4.844-2.168,4.844-4.844V4.844
			C117.736,2.168,115.568,0,112.892,0z"/>
		<path fill="#E65328" d="M4.845,0H58.98v117.959H4.845c-2.676,0-4.844-2.168-4.844-4.844V4.844C0.002,2.168,2.17,0,4.845,0z"/>
	</g>
	<polygon fill="#FFFFFF" points="90.611,37.889 91.945,24.723 27.279,24.723 30.445,63.889 75.111,63.889 73.945,80.889 
		59.279,84.723 44.945,80.723 44.112,70.889 31.112,70.889 32.945,90.889 58.945,98.223 85.779,90.889 89.279,51.389 42.279,51.389 
		41.279,37.556 	"/>
	<g>
		<polygon fill="#ECECED" points="58.758,24.723 27.279,24.723 30.445,63.889 58.758,63.889 58.758,51.389 42.279,51.389 
			41.279,37.556 58.758,37.674 		"/>
		<polygon fill="#ECECED" points="58.758,84.577 44.945,80.723 44.112,70.889 31.112,70.889 32.945,90.889 58.758,98.169 		"/>
	</g>
</g>
</svg>
