<?xml version="1.0" encoding="utf-8"?>
<!-- Generator: Adobe Illustrator 16.0.0, SVG Export Plug-In . SVG Version: 6.00 Build 0)  -->
<!DOCTYPE svg PUBLIC "-//W3C//DTD SVG 1.1//EN" "http://www.w3.org/Graphics/SVG/1.1/DTD/svg11.dtd">
<svg version="1.1" id="Layer_1" xmlns="http://www.w3.org/2000/svg" xmlns:xlink="http://www.w3.org/1999/xlink" x="0px" y="0px"
	 width="117.736px" height="117.96px" viewBox="0 0 117.736 117.96" enable-background="new 0 0 117.736 117.96"
	 xml:space="preserve">
<g>
	<g>
		<path fill="#EA6934" d="M112.781-0.313H58.645v117.959h54.136c2.676,0,4.844-2.168,4.844-4.844V4.531
			C117.625,1.855,115.457-0.313,112.781-0.313z"/>
		<path fill="#E7552A" d="M4.733-0.313h54.136v117.959H4.733c-2.675,0-4.844-2.168-4.844-4.844V4.531
			C-0.111,1.855,2.058-0.313,4.733-0.313z"/>
	</g>
	<polygon fill="#FFFFFF" points="90.5,37.576 91.833,24.409 27.167,24.409 30.333,63.576 75,63.576 73.833,80.576 59.167,84.409 
		44.833,80.409 44,70.576 31,70.576 32.833,90.576 58.833,97.909 85.667,90.576 89.167,51.076 42.167,51.076 41.167,37.243 	"/>
	<g>
		<polygon fill="#EBEBED" points="58.645,24.409 27.167,24.409 30.333,63.576 58.645,63.576 58.645,51.076 42.167,51.076 
			41.167,37.243 58.645,37.361 		"/>
		<polygon fill="#EBEBED" points="58.645,84.264 44.833,80.409 44,70.576 31,70.576 32.833,90.576 58.645,97.856 		"/>
	</g>
</g>
</svg>
