<?xml version="1.0" encoding="utf-8"?>
<!-- Generator: Adobe Illustrator 16.0.0, SVG Export Plug-In . SVG Version: 6.00 Build 0)  -->
<!DOCTYPE svg PUBLIC "-//W3C//DTD SVG 1.1//EN" "http://www.w3.org/Graphics/SVG/1.1/DTD/svg11.dtd">
<svg version="1.1" id="Layer_1" xmlns="http://www.w3.org/2000/svg" xmlns:xlink="http://www.w3.org/1999/xlink" x="0px" y="0px"
	 width="117.736px" height="117.959px" viewBox="0 0 117.736 117.959" enable-background="new 0 0 117.736 117.959"
	 xml:space="preserve">
<g>
	<g>
		<path fill="#E17494" d="M112.892,0H58.756v117.959h54.136c2.676,0,4.844-2.169,4.844-4.844V4.844
			C117.736,2.168,115.568,0,112.892,0z"/>
		<path fill="#E989A5" d="M4.844,0H58.98v117.959H4.844c-2.675,0-4.844-2.169-4.844-4.844V4.844C0,2.168,2.169,0,4.844,0z"/>
	</g>
	<g>
		<g>
			<path fill="#88888A" d="M42.594,84.01c0,0.439-0.146,0.658-0.658,0.658h-7.608c-0.439,0-0.585-0.219-0.585-0.658V37.487
				c0-0.439,0.219-0.512,0.585-0.512h7.681c0.438,0,0.585,0.073,0.585,0.512V84.01z"/>
			<path fill="#88888A" d="M51.517,67.259c0-10.606,7.827-18.873,20.262-18.873c1.684,0,2.928,0.146,4.17,0.512V33.318
				c0-0.366,0.146-0.512,0.439-0.512h7.973c0.293,0,0.367,0.146,0.367,0.439v43.158c0,1.536,0.145,3.512,0.219,4.682
				c0.072,0.365,0,0.512-0.365,0.731c-4.609,2.269-9.803,3.585-14.631,3.585C59.197,85.401,51.517,79.475,51.517,67.259z
				 M75.949,55.848c-1.098-0.439-2.633-0.658-4.316-0.658c-6.582,0-11.044,4.169-11.044,11.631c0,8.266,4.828,11.557,10.386,11.557
				c1.83,0,3.658-0.292,4.975-0.73V55.848z"/>
		</g>
	</g>
</g>
</svg>
