<?xml version="1.0" encoding="utf-8"?>
<!-- Generator: Adobe Illustrator 16.0.0, SVG Export Plug-In . SVG Version: 6.00 Build 0)  -->
<!DOCTYPE svg PUBLIC "-//W3C//DTD SVG 1.1//EN" "http://www.w3.org/Graphics/SVG/1.1/DTD/svg11.dtd">
<svg version="1.1" id="Layer_1" xmlns="http://www.w3.org/2000/svg" xmlns:xlink="http://www.w3.org/1999/xlink" x="0px" y="0px"
	 width="117.736px" height="117.96px" viewBox="0 0 117.736 117.96" enable-background="new 0 0 117.736 117.96"
	 xml:space="preserve">
<g>
	<g>
		<path fill="#083381" d="M112.781-0.313H58.645v117.959h54.136c2.676,0,4.844-2.168,4.844-4.844V4.531
			C117.625,1.855,115.457-0.313,112.781-0.313z"/>
		<path fill="#172559" d="M4.732-0.313h54.137v117.959H4.732c-2.674,0-4.844-2.168-4.844-4.844V4.531
			C-0.111,1.855,2.059-0.313,4.732-0.313z"/>
	</g>
	<g>
		<path fill="#FFFFFF" d="M65.875,20.783c-2.125,4.5-2.553,12.234,5.375,18.625c8.375,6.75,17.066,4.957,22,0.75
			c-1.875,5.5-13,13.375-25,3.628C57.595,35.131,62.5,23.158,65.875,20.783z"/>
		<path fill="#FFFFFF" d="M50.291,24.533c-3.453,7.311-4.148,19.875,8.732,30.257c13.605,10.966,29.111,7.954,36.601-1.757
			c-3,10.625-22.875,23.5-41.475,8.869C36.621,48.114,44.808,28.391,50.291,24.533z"/>
		<path fill="#FFFFFF" d="M31.801,30.908C26.5,40.783,26.497,58.724,44.25,73.032C63.003,88.147,87,82.907,94.289,70.19
			C91,85.157,62.501,102.905,37.12,82.415C15.123,64.657,20.75,38.908,31.801,30.908z"/>
	</g>
</g>
</svg>
