<?xml version="1.0" encoding="utf-8"?>
<!-- Generator: Adobe Illustrator 16.0.0, SVG Export Plug-In . SVG Version: 6.00 Build 0)  -->
<!DOCTYPE svg PUBLIC "-//W3C//DTD SVG 1.1//EN" "http://www.w3.org/Graphics/SVG/1.1/DTD/svg11.dtd">
<svg version="1.1" id="Layer_1" xmlns="http://www.w3.org/2000/svg" xmlns:xlink="http://www.w3.org/1999/xlink" x="0px" y="0px"
	 width="117.736px" height="117.96px" viewBox="0 0 117.736 117.96" enable-background="new 0 0 117.736 117.96"
	 xml:space="preserve">
<g>
	<g>
		<path fill="#F0BE26" d="M112.781-0.313H58.645v117.959h54.136c2.676,0,4.844-2.168,4.844-4.844V4.531
			C117.625,1.855,115.457-0.313,112.781-0.313z"/>
		<path fill="#E4A227" d="M4.733-0.313h54.136v117.959H4.733c-2.675,0-4.844-2.168-4.844-4.844V4.531
			C-0.111,1.855,2.058-0.313,4.733-0.313z"/>
	</g>
	<polygon fill="#FFFFFF" points="89.333,46.243 86.5,18.409 35.333,18.409 30.5,65.576 75,65.576 73.167,82.576 59,86.909 
		44.833,82.576 43.667,72.076 30.5,72.076 32.667,92.743 59,100.576 86,93.076 89.333,52.909 44.833,52.909 46.833,32.409 
		74.333,32.409 76.167,46.243 	"/>
	<g>
		<polygon fill="#EBEBED" points="58.869,86.869 44.833,82.576 43.667,72.076 30.5,72.076 32.667,92.743 58.869,100.537 		"/>
		<polygon fill="#EBEBED" points="46.833,32.409 58.869,32.409 58.869,18.409 35.333,18.409 30.5,65.576 58.869,65.576 
			58.869,52.909 44.833,52.909 		"/>
	</g>
</g>
</svg>
