<?xml version="1.0" encoding="utf-8"?>
<!-- Generator: Adobe Illustrator 16.0.0, SVG Export Plug-In . SVG Version: 6.00 Build 0)  -->
<!DOCTYPE svg PUBLIC "-//W3C//DTD SVG 1.1//EN" "http://www.w3.org/Graphics/SVG/1.1/DTD/svg11.dtd">
<svg version="1.1" id="Layer_1" xmlns="http://www.w3.org/2000/svg" xmlns:xlink="http://www.w3.org/1999/xlink" x="0px" y="0px"
	 width="117.736px" height="117.959px" viewBox="0 0 117.736 117.959" enable-background="new 0 0 117.736 117.959"
	 xml:space="preserve">
<g>
	<g>
		<path fill="#1F78B2" d="M112.78-0.223H58.645v117.959h54.135c2.676,0,4.844-2.169,4.844-4.844V4.621
			C117.624,1.946,115.456-0.223,112.78-0.223z"/>
		<path fill="#3988BF" d="M4.732-0.223h54.136v117.959H4.732c-2.675,0-4.844-2.169-4.844-4.844V4.621
			C-0.111,1.946,2.058-0.223,4.732-0.223z"/>
	</g>
	<g>
		<g>
			<path fill="#88888A" d="M28.437,37.265c0-0.366,0.073-0.512,0.439-0.512c2.78-0.073,8.266-0.146,13.825-0.146
				c14.337,0,19.312,7.388,19.386,15.874c0,11.63-9.583,16.678-20.336,16.678c-2.048,0-4.023,0-4.536,0v14.704
				c0,0.438-0.146,0.584-0.512,0.584h-7.754c-0.366,0-0.512-0.146-0.512-0.512V37.265z M37.215,62.062
				c0.585,0.073,1.683,0.146,4.755,0.146c5.779,0,11.338-2.267,11.338-9.582c0-5.852-3.73-9.071-10.607-9.071
				c-2.853,0-4.901,0.073-5.486,0.146V62.062z"/>
			<path fill="#88888A" d="M80.006,54.894c-3.584,0-4.535,1.682-4.535,3.072c0,1.755,0.951,2.706,6.438,4.9
				c7.534,3.072,10.753,5.778,10.753,11.046c0,7.314-5.633,11.266-13.679,11.266c-3.877,0-8.267-0.951-11.339-2.854
				c-0.292-0.146-0.438-0.365-0.438-0.731v-6.729c0-0.365,0.292-0.512,0.512-0.365c3.804,2.413,8.047,3.949,11.85,3.949
				c3.365,0,4.536-1.682,4.536-3.291c0-1.902-1.317-3-6.583-5.121c-7.535-3.072-10.168-5.926-10.168-11.265
				c0-5.925,4.754-10.607,13.387-10.607c4.461,0,7.607,0.951,9.655,2.122c0.366,0.292,0.438,0.512,0.438,0.951v5.999
				c0,0.439-0.293,0.658-0.658,0.439C87.542,56.21,83.811,54.894,80.006,54.894z"/>
		</g>
	</g>
</g>
</svg>
