<?xml version="1.0" encoding="utf-8"?>
<!-- Generator: Adobe Illustrator 16.0.0, SVG Export Plug-In . SVG Version: 6.00 Build 0)  -->
<!DOCTYPE svg PUBLIC "-//W3C//DTD SVG 1.1//EN" "http://www.w3.org/Graphics/SVG/1.1/DTD/svg11.dtd">
<svg version="1.1" id="Layer_1" xmlns="http://www.w3.org/2000/svg" xmlns:xlink="http://www.w3.org/1999/xlink" x="0px" y="0px"
	 width="117.736px" height="117.959px" viewBox="0 0 117.736 117.959" enable-background="new 0 0 117.736 117.959"
	 xml:space="preserve">
<g>
	<path fill="#1F78B2" d="M112.78-0.223H58.645v117.958h54.135c2.676,0,4.844-2.168,4.844-4.844V4.621
		C117.624,1.946,115.456-0.223,112.78-0.223z"/>
	<path fill="#3988BF" d="M4.732-0.223h54.136v117.958H4.732c-2.675,0-4.844-2.168-4.844-4.844V4.621
		C-0.111,1.946,2.058-0.223,4.732-0.223z"/>
</g>
<g>
	<g>
		<path fill="#333333" d="M28.437,37.265c0-0.366,0.072-0.512,0.438-0.512c2.78-0.073,8.267-0.146,13.825-0.146
			c14.337,0,19.313,7.388,19.386,15.874c0,11.629-9.583,16.678-20.336,16.678c-2.048,0-4.022,0-4.536,0v14.703
			c0,0.439-0.146,0.584-0.512,0.584h-7.754c-0.366,0-0.512-0.145-0.512-0.512V37.265z M37.215,62.062
			c0.585,0.074,1.684,0.146,4.756,0.146c5.778,0,11.338-2.268,11.338-9.582c0-5.852-3.73-9.071-10.607-9.071
			c-2.853,0-4.901,0.073-5.486,0.146V62.062z"/>
		<path fill="#333333" d="M80.006,54.894c-3.584,0-4.534,1.682-4.534,3.072c0,1.756,0.95,2.706,6.438,4.9
			c7.534,3.072,10.753,5.777,10.753,11.046c0,7.313-5.633,11.267-13.679,11.267c-3.877,0-8.268-0.951-11.339-2.855
			c-0.292-0.145-0.438-0.364-0.438-0.73v-6.729c0-0.365,0.292-0.512,0.512-0.365c3.805,2.413,8.048,3.949,11.851,3.949
			c3.365,0,4.536-1.682,4.536-3.291c0-1.902-1.317-3-6.583-5.121c-7.535-3.072-10.168-5.926-10.168-11.265
			c0-5.925,4.754-10.607,13.387-10.607c4.461,0,7.607,0.951,9.655,2.122c0.366,0.292,0.438,0.512,0.438,0.951v5.999
			c0,0.439-0.293,0.658-0.658,0.439C87.542,56.21,83.811,54.894,80.006,54.894z"/>
	</g>
</g>
</svg>
