<?xml version="1.0" encoding="utf-8"?>
<!-- Generator: Adobe Illustrator 16.0.0, SVG Export Plug-In . SVG Version: 6.00 Build 0)  -->
<!DOCTYPE svg PUBLIC "-//W3C//DTD SVG 1.1//EN" "http://www.w3.org/Graphics/SVG/1.1/DTD/svg11.dtd">
<svg version="1.1" id="Layer_1" xmlns="http://www.w3.org/2000/svg" xmlns:xlink="http://www.w3.org/1999/xlink" x="0px" y="0px"
	 width="117.736px" height="117.96px" viewBox="0 0 117.736 117.96" enable-background="new 0 0 117.736 117.96"
	 xml:space="preserve">
<g>
	<path fill="#61DAFB" d="M112.781-0.313H58.645v117.959h54.136c2.676,0,4.844-2.168,4.844-4.844V4.531
		C117.625,1.855,115.457-0.313,112.781-0.313z"/>
	<path fill="#28BAC9" d="M4.733-0.313h54.136v117.959H4.733c-2.675,0-4.844-2.168-4.844-4.844V4.531
		C-0.111,1.855,2.058-0.313,4.733-0.313z"/>
</g>
<g>
	<path fill="#FFFFFF" d="M105.142,58.919c0-6.119-7.662-11.917-19.409-15.513c2.709-11.974,1.505-21.5-3.803-24.55
		c-1.221-0.713-2.644-1.051-4.2-1.054v-0.021c-5.177,0-11.954,3.69-18.808,10.092c-6.852-6.364-13.63-10.017-18.807-10.017v0.019
		c-1.581,0-3.013,0.339-4.255,1.054c-5.29,3.05-6.476,12.558-3.747,24.495c-11.71,3.614-19.335,9.394-19.335,15.494
		c0,6.12,7.663,11.918,19.411,15.515c-2.711,11.974-1.506,21.499,3.803,24.549c1.223,0.716,2.654,1.055,4.236,1.055
		c5.177,0,11.955-3.689,18.807-10.092c6.854,6.364,13.632,10.018,18.809,10.018c1.581,0,3.012-0.339,4.255-1.055
		c5.29-3.05,6.476-12.558,3.746-24.494C97.517,70.819,105.142,65.02,105.142,58.919z M77.713,21.981V22
		c0.865,0,1.563,0.169,2.146,0.489c2.56,1.468,3.673,7.06,2.805,14.252c-0.206,1.769-0.545,3.633-0.959,5.535
		c-3.689-0.904-7.72-1.6-11.956-2.052c-2.541-3.483-5.177-6.646-7.831-9.414C68.045,25.114,73.798,21.99,77.713,21.981z
		 M42.281,68.559c0.885,1.507,1.789,2.976,2.711,4.405c-2.674-0.395-5.253-0.885-7.72-1.487c0.697-2.428,1.563-4.932,2.542-7.436
		C40.586,65.546,41.396,67.053,42.281,68.559z M37.216,46.361c2.466-0.583,5.064-1.092,7.757-1.487
		c-0.922,1.45-1.845,2.938-2.711,4.462c-0.866,1.506-1.676,3.012-2.447,4.519C38.798,51.332,37.932,48.809,37.216,46.361z
		 M42.017,58.976c1.167-2.522,2.485-5.045,3.897-7.512c1.469-2.542,2.975-4.951,4.537-7.192c2.805-0.245,5.648-0.376,8.509-0.376
		c2.844,0,5.686,0.131,8.473,0.357c1.562,2.241,3.087,4.632,4.557,7.154c1.43,2.466,2.729,4.971,3.915,7.493
		c-1.186,2.523-2.485,5.047-3.896,7.513c-1.469,2.542-2.975,4.951-4.538,7.192c-2.805,0.245-5.647,0.377-8.51,0.377
		c-2.842,0-5.685-0.132-8.471-0.357c-1.563-2.241-3.087-4.632-4.557-7.155C44.503,64.003,43.203,61.5,42.017,58.976z M75.642,68.503
		c0.865-1.506,1.674-3.031,2.445-4.538c1.019,2.522,1.885,5.046,2.599,7.494c-2.466,0.602-5.064,1.11-7.755,1.505
		C73.852,71.515,74.775,70.028,75.642,68.503z M75.622,49.28c-0.866-1.506-1.788-2.975-2.711-4.406
		c2.674,0.395,5.253,0.885,7.721,1.487c-0.698,2.429-1.563,4.933-2.544,7.437C77.316,52.292,76.508,50.786,75.622,49.28z
		 M64.138,39.809c-1.695-0.074-3.427-0.131-5.178-0.131c-1.769,0-3.52,0.038-5.233,0.131c1.694-2.202,3.445-4.217,5.176-6.024
		C60.655,35.592,62.407,37.607,64.138,39.809z M37.95,22.564c0.565-0.339,1.299-0.489,2.165-0.489v-0.019
		c3.897,0,9.677,3.106,15.814,8.773c-2.635,2.767-5.271,5.912-7.775,9.395c-4.255,0.452-8.284,1.148-11.974,2.071
		c-0.434-1.882-0.753-3.709-0.979-5.46C34.317,29.643,35.409,24.052,37.95,22.564z M33.206,70.367
		c-1.864-0.584-3.633-1.224-5.271-1.92c-6.665-2.843-10.976-6.57-10.976-9.528c0-2.956,4.311-6.702,10.976-9.526
		c1.619-0.697,3.389-1.318,5.215-1.902c1.073,3.691,2.484,7.531,4.235,11.466C35.654,62.874,34.26,66.695,33.206,70.367z
		 M40.191,95.859c-0.847-0.02-1.563-0.189-2.127-0.509c-2.56-1.469-3.671-7.061-2.805-14.252c0.207-1.77,0.545-3.634,0.959-5.535
		c3.69,0.904,7.72,1.601,11.956,2.052c2.542,3.483,5.178,6.646,7.832,9.414C49.868,92.733,44.107,95.859,40.191,95.859z
		 M58.998,84.054c-1.75-1.808-3.5-3.822-5.233-6.025c1.695,0.075,3.426,0.133,5.177,0.133c1.77,0,3.521-0.038,5.234-0.133
		C62.482,80.232,60.73,82.247,58.998,84.054z M79.972,95.275c-0.565,0.339-1.301,0.488-2.166,0.488
		c-3.897,0-9.677-3.105-15.814-8.772c2.636-2.767,5.271-5.912,7.775-9.395c4.255-0.452,8.284-1.148,11.973-2.071
		c0.435,1.901,0.774,3.729,0.98,5.479C83.606,88.196,82.514,93.788,79.972,95.275z M89.968,68.447
		c-1.619,0.696-3.387,1.317-5.214,1.9c-1.074-3.689-2.484-7.53-4.236-11.466c1.731-3.915,3.126-7.737,4.179-11.409
		c1.864,0.584,3.634,1.224,5.292,1.92c6.663,2.843,10.976,6.571,10.976,9.526C100.945,61.876,96.634,65.623,89.968,68.447z"/>
	<circle fill="#FFFFFF" cx="58.942" cy="58.92" r="8.604"/>
</g>
</svg>
