<?xml version="1.0" encoding="utf-8"?>
<!-- Generator: Adobe Illustrator 16.0.0, SVG Export Plug-In . SVG Version: 6.00 Build 0)  -->
<!DOCTYPE svg PUBLIC "-//W3C//DTD SVG 1.1//EN" "http://www.w3.org/Graphics/SVG/1.1/DTD/svg11.dtd">
<svg version="1.1" id="Layer_1" xmlns="http://www.w3.org/2000/svg" xmlns:xlink="http://www.w3.org/1999/xlink" x="0px" y="0px"
	 width="117.736px" height="117.96px" viewBox="0 0 117.736 117.96" enable-background="new 0 0 117.736 117.96"
	 xml:space="preserve">
<g>
	<g>
		<path fill="#5595CB" d="M112.05,0H57.914v117.96h54.136c2.676,0,4.844-2.169,4.844-4.844V4.844C116.894,2.169,114.726,0,112.05,0z
			"/>
		<path fill="#4880BD" d="M4.002,0h54.137v117.96H4.002c-2.674,0-4.844-2.169-4.844-4.844V4.844C-0.842,2.169,1.328,0,4.002,0z"/>
	</g>
	<g>
		<path fill="#FFFFFF" d="M75.992,31.505l-12.963,7.856l14.959,8.513v22.324L57.905,81.359L38.161,70.194V52.89l-12.957-6.668
			v31.694L57.438,96.84l33.411-18.924v-37.86L75.992,31.505z"/>
		<polygon fill="#FFFFFF" points="69.988,28.384 57.438,21.12 44.344,29.224 57.067,36.22 		"/>
	</g>
</g>
</svg>
