<?xml version="1.0" encoding="utf-8"?>
<!-- Generator: Adobe Illustrator 16.0.0, SVG Export Plug-In . SVG Version: 6.00 Build 0)  -->
<!DOCTYPE svg PUBLIC "-//W3C//DTD SVG 1.1//EN" "http://www.w3.org/Graphics/SVG/1.1/DTD/svg11.dtd">
<svg version="1.1" xmlns="http://www.w3.org/2000/svg" xmlns:xlink="http://www.w3.org/1999/xlink" x="0px" y="0px"
	 width="68.204px" height="56.693px" viewBox="0 0 68.204 56.693" enable-background="new 0 0 68.204 56.693" xml:space="preserve">
<g id="Layer_1">
	<path fill="#646072" d="M68.121,14.21c-0.131-0.198-0.379-0.249-0.572-0.111L52.011,25.253l-4.047-5.575
		c-0.064-0.144-0.199-0.229-0.357-0.229l-3.786,0.354l-0.044,0.007c-0.184,0.015-0.32,0.134-0.364,0.317l-3.108,13.304l-1.465,0.637
		l-2.756-3.313c-0.144-0.174-0.426-0.171-0.538-0.068l-1.128,0.931l-1.876,1.852L21.71,0.303C21.648,0.115,21.494,0,21.306,0
		c-0.129,0-0.258,0.059-0.34,0.157c-0.086,0.102-0.117,0.233-0.094,0.371l6.698,37.904l-1.198,1.196
		c-0.592-0.087-1.248-0.031-2.206,0.058l-7.673,0.722c-0.045,0.004-0.092,0.017-0.134,0.032c-1.518-0.81-3.048-1.652-4.529-2.47
		c-0.64-0.353-1.278-0.705-1.916-1.052c-1.267-0.696-4.558-2.313-7.744-2.313c-0.66,0-1.279,0.073-1.842,0.214
		c-0.185,0.044-0.305,0.188-0.311,0.331c-0.059,0.195,0.029,0.386,0.219,0.473l29.08,13.086c0.035,0.387,0.072,0.775,0.11,1.159
		c0.02,0.212,0.15,0.372,0.331,0.407l7.252,1.432l5.509,4.873c0.033,0.028,0.059,0.036,0.046,0.023l0.12,0.065
		c0.045,0.013,0.092,0.023,0.137,0.023c0.052,0,0.104-0.011,0.13-0.021c0.133-0.034,0.232-0.118,0.274-0.24l0.05-0.068
		c0.459-0.662,0.684-0.992,0.749-1.494l1.569,0.69c0.038,0.02,0.076,0.021,0.079,0.02c0.034,0.015,0.068,0.016,0.107,0.023
		l0.052,0.001c0.199,0,0.351-0.128,0.386-0.33l1.62-9.47l8.106-3.165c0.139-0.013,0.252-0.1,0.311-0.234l11.913-27.738
		C68.229,14.525,68.211,14.349,68.121,14.21z M31.67,49.769l-1.411-0.28c-0.003-0.033-0.003-0.068-0.008-0.106l-0.024-0.266
		L31.67,49.769z M22.589,44.731L2.004,35.465c3.036-0.098,6.226,1.519,8.975,3.027l1.346,0.738c1.652,0.909,3.363,1.849,5.06,2.746
		L22.589,44.731z M66.771,15.729l-11.1,25.839l-9.338-5.789l0.027-5.402L66.771,15.729z M46.368,29.305l0.035-6.752l4.758,3.31
		L46.368,29.305z M46.369,43.56c-0.024-0.024-0.048-0.048-0.077-0.066l0.035-6.696l8.575,5.318l-7.234,2.824
		c-0.233-0.348-0.619-0.714-0.936-1.016C46.579,43.779,46.448,43.652,46.369,43.56z M46.991,45.609
		c-0.002,0.029-0.01,0.062-0.018,0.097l-0.717,4.189l0.029-5.099l0.632,0.736C46.939,45.558,46.966,45.583,46.991,45.609z
		 M45.055,20.558l2.315-0.22c0.894,1.232,1.789,2.465,2.683,3.696L45.055,20.558z M40.815,47.074l-5.996,3.144l-16.841-9.076
		l8.013-0.756c0.052-0.004,0.102-0.007,0.146-0.004c0.039,0.057,0.089,0.099,0.149,0.127L40.815,47.074z M35.141,32.144l0.572-0.479
		c1.259,1.516,2.52,3.03,3.78,4.545c0.016,0.019,0.025,0.028,0.042,0.046l0.083,0.101l-0.804,3.45l-3.625-7.553
		C35.169,32.211,35.156,32.176,35.141,32.144z M40.888,46.141l-12.755-5.94c-0.292-0.134-0.544-0.24-0.778-0.325l7.119-7.107
		l4.101,8.545l0.028,0.055c0.05,0.108,0.098,0.215,0.145,0.311c0.062,0.144,0.138,0.296,0.227,0.473L40.888,46.141z M39.532,41.307
		c-0.03-0.065-0.049-0.136-0.065-0.189c-0.012-0.035-0.023-0.076-0.041-0.113l0.817-3.502c0.022-0.093,0.058-0.196,0.093-0.308
		c0.082-0.259,0.176-0.547,0.171-0.82l0.596-2.451c0.034-0.071,0.047-0.154,0.031-0.231l1.583-6.764l-0.884,8.679
		c-0.021,0.208-0.058,0.43-0.091,0.655c-0.079,0.505-0.161,1.029-0.115,1.514l1.494,15.893c0.058,0.646,0.076,0.964-0.016,1.258
		l-0.864-7.862c0.008-0.062-0.003-0.126-0.025-0.186c-0.153-0.94-0.79-2.026-1.349-2.984c-0.261-0.446-0.51-0.868-0.689-1.244
		L39.532,41.307z M39.429,34.756l0.63-0.273l-0.189,0.81L39.429,34.756z M41.444,47.727l0.82,7.466l-4.71-4.165
		c-0.028-0.035-0.063-0.063-0.102-0.087c-0.266-0.234-0.531-0.473-0.796-0.704L41.444,47.727z M45.536,21.948l-0.171,32.564
		l-1.351-0.597L42.5,37.802c-0.044-0.467,0.033-0.983,0.111-1.482c0.034-0.23,0.068-0.457,0.092-0.675l1.486-14.633L45.536,21.948z
		 M31.656,34.195l-3.351,3.412L22.794,6.421l9.024,27.628C31.769,34.086,31.715,34.133,31.656,34.195z M47.606,19.636L47.606,19.636
		v-0.008V19.636z"/>
</g>
<g id="Layer_2" display="none">
	<path display="inline" fill="#A9154A" d="M59.492,39.037c-0.055-0.082-0.157-0.104-0.238-0.046l-6.457,4.636l-1.683-2.317
		c-0.026-0.06-0.083-0.096-0.148-0.096l-1.573,0.147l-0.019,0.003c-0.076,0.006-0.133,0.056-0.151,0.132l-1.292,5.529l-0.608,0.265
		l-1.146-1.377c-0.06-0.072-0.177-0.071-0.224-0.028l-0.469,0.387l-0.779,0.77l-4.502-13.784c-0.025-0.078-0.09-0.126-0.168-0.126
		c-0.054,0-0.107,0.024-0.142,0.065c-0.035,0.042-0.049,0.097-0.039,0.154l2.784,15.753L42.141,49.6
		c-0.246-0.035-0.519-0.013-0.917,0.024l-3.188,0.3c-0.019,0.002-0.038,0.007-0.056,0.014c-0.631-0.337-1.267-0.688-1.883-1.026
		c-0.266-0.146-0.531-0.293-0.796-0.438c-0.527-0.289-1.895-0.961-3.219-0.961c-0.274,0-0.532,0.03-0.766,0.089
		c-0.077,0.019-0.127,0.078-0.129,0.138c-0.024,0.081,0.012,0.16,0.091,0.196l12.086,5.438c0.015,0.161,0.03,0.322,0.046,0.482
		c0.008,0.088,0.063,0.154,0.138,0.169l3.014,0.595l2.29,2.025c0.014,0.012,0.024,0.016,0.019,0.01l0.051,0.027
		c0.019,0.006,0.038,0.01,0.057,0.01c0.021,0,0.043-0.004,0.054-0.009c0.056-0.014,0.097-0.049,0.114-0.1l0.021-0.028
		c0.19-0.275,0.284-0.412,0.312-0.621l0.652,0.287c0.016,0.008,0.031,0.009,0.032,0.008c0.015,0.006,0.028,0.007,0.045,0.01
		l0.021,0.001c0.083,0,0.146-0.054,0.16-0.138l0.674-3.936l3.369-1.315c0.058-0.006,0.104-0.041,0.129-0.098l4.951-11.528
		C59.537,39.167,59.529,39.094,59.492,39.037z M44.343,53.815l-0.587-0.116c-0.001-0.014-0.001-0.028-0.003-0.044l-0.01-0.11
		L44.343,53.815z M40.568,51.721l-8.556-3.851c1.262-0.041,2.588,0.631,3.73,1.258l0.559,0.307c0.688,0.378,1.398,0.769,2.104,1.142
		L40.568,51.721z M58.931,39.667l-4.613,10.739L50.437,48l0.012-2.245L58.931,39.667z M50.451,45.31l0.015-2.807l1.978,1.376
		L50.451,45.31z M50.452,51.235c-0.011-0.011-0.021-0.021-0.032-0.028l0.015-2.782l3.563,2.21l-3.007,1.174
		c-0.097-0.145-0.257-0.297-0.389-0.422C50.539,51.326,50.484,51.273,50.452,51.235z M50.711,52.086
		c-0.002,0.012-0.005,0.025-0.008,0.04l-0.298,1.741l0.012-2.119l0.263,0.306C50.688,52.065,50.699,52.076,50.711,52.086z
		 M49.905,41.674l0.963-0.091c0.371,0.512,0.743,1.024,1.114,1.536L49.905,41.674z M48.144,52.695l-2.492,1.307l-6.999-3.772
		l3.33-0.313c0.021-0.002,0.042-0.003,0.061-0.002c0.017,0.023,0.037,0.041,0.063,0.053L48.144,52.695z M45.785,46.49l0.237-0.199
		c0.523,0.63,1.048,1.26,1.571,1.889c0.007,0.008,0.011,0.013,0.018,0.02l0.035,0.042l-0.335,1.434l-1.506-3.139
		C45.797,46.518,45.791,46.503,45.785,46.49z M48.174,52.307l-5.302-2.469c-0.121-0.056-0.226-0.1-0.323-0.135l2.959-2.954
		l1.704,3.551l0.012,0.023c0.021,0.045,0.041,0.089,0.061,0.129c0.025,0.06,0.057,0.123,0.094,0.196L48.174,52.307z M47.61,50.298
		c-0.013-0.027-0.021-0.057-0.027-0.079c-0.005-0.015-0.01-0.031-0.017-0.047l0.34-1.455c0.009-0.039,0.023-0.082,0.038-0.128
		c0.034-0.107,0.073-0.228,0.071-0.341l0.247-1.019c0.015-0.03,0.02-0.064,0.014-0.097l0.657-2.812l-0.367,3.607
		c-0.009,0.087-0.023,0.179-0.038,0.272c-0.032,0.21-0.066,0.428-0.048,0.629l0.621,6.605c0.024,0.269,0.032,0.4-0.006,0.522
		l-0.359-3.268c0.003-0.025-0.001-0.052-0.011-0.077c-0.063-0.391-0.328-0.842-0.561-1.24c-0.108-0.186-0.212-0.361-0.286-0.518
		L47.61,50.298z M47.567,47.576l0.262-0.113l-0.079,0.336L47.567,47.576z M48.405,52.966l0.341,3.104l-1.958-1.731
		c-0.012-0.015-0.025-0.026-0.042-0.036c-0.11-0.098-0.221-0.196-0.331-0.293L48.405,52.966z M50.105,42.252l-0.071,13.534
		l-0.562-0.248l-0.629-6.697c-0.019-0.193,0.014-0.408,0.046-0.616c0.015-0.096,0.028-0.189,0.038-0.28l0.618-6.081L50.105,42.252z
		 M44.337,47.342l-1.393,1.418l-2.291-12.961l3.751,11.482C44.384,47.297,44.361,47.317,44.337,47.342z M50.966,41.292
		L50.966,41.292v-0.003V41.292z"/>
</g>
</svg>
